PathFileType	4	(X/Y/Z)	c:\Git\powerlifing_model_clean\simulations\HC835B\Session1\HC835B_CUT_0001\marker_experimental.trc
DataRate	CameraRate	NumFrames	NumMarkers	Units	OrigDataRate	OrigDataStartFrame	OrigNumFrames
240.000000	240.000000	4	38	mm	240.000000	0	75
Frame#	Time	RPSI			LPSI			RASI			LASI			RTH1			RTH2			RTH3			RTH4			RSK1			RSK2			RSK3			RSK4			RCAL1			RCAL2			RCAL3			RST			RPT			RTN			RFMB			RSMB			RVMB			RFMH			RSMH			RVMH			RPM			LTH1			LTH2			LTH3			LTH4			LSK1			LSK2			LSK3			LSK4			LCAL1			LCAL2			LCAL3			LFMH			LVMH			
		X1	Y1	Z1	X2	Y2	Z2	X3	Y3	Z3	X4	Y4	Z4	X5	Y5	Z5	X6	Y6	Z6	X7	Y7	Z7	X8	Y8	Z8	X9	Y9	Z9	X10	Y10	Z10	X11	Y11	Z11	X12	Y12	Z12	X13	Y13	Z13	X14	Y14	Z14	X15	Y15	Z15	X16	Y16	Z16	X17	Y17	Z17	X18	Y18	Z18	X19	Y19	Z19	X20	Y20	Z20	X21	Y21	Z21	X22	Y22	Z22	X23	Y23	Z23	X24	Y24	Z24	X25	Y25	Z25	X26	Y26	Z26	X27	Y27	Z27	X28	Y28	Z28	X29	Y29	Z29	X30	Y30	Z30	X31	Y31	Z31	X32	Y32	Z32	X33	Y33	Z33	X34	Y34	Z34	X35	Y35	Z35	X36	Y36	Z36	X37	Y37	Z37	X38	Y38	Z38	

1	0	341.1989746093751	1093.543212890625	204.4243469238282	238.1637115478516	1088.744018554688	245.4573059082032	319.1765136718751	1056.888916015625	-12.31373405456543	113.1800079345703	1021.180603027344	82.37344360351564	456.6729431152345	844.7929687500002	-77.11402130126955	436.059783935547	866.8990478515627	-129.8052215576172	458.6445312500001	793.3334960937502	-144.0693511962891	429.1853637695314	809.3812255859377	-192.2251586914063	588.9205932617189	405.8684997558595	-195.2780151367188	586.1547241210939	389.846649169922	-254.2992248535157	607.7612304687501	350.6388854980469	-212.9647369384766	592.5820312500001	332.7751159667969	-267.9528808593751	623.7873535156251	201.3995819091797	-149.5331420898438	605.9772338867189	154.5156860351563	-150.2073516845703	666.3659667968751	177.216796875	-154.5085906982422	583.8125000000001	151.7384033203125	-219.2105865478516	680.5791625976564	186.6602783203125	-217.2541809082032	585.9495849609376	165.7998504638672	-277.7104492187501	596.6301269531251	144.5408935546875	-307.1457519531251	631.1380615234376	180.9842224121094	-324.5710144042969	697.7302246093751	158.3727111816407	-258.7134094238282	603.9258422851564	107.9835205078125	-354.1943359375001	645.0215454101564	136.8560028076172	-375.9132080078126	715.8233032226564	139.1519622802735	-335.8709716796876	635.9702148437501	119.0010528564453	-431.3267211914064	131.7623901367188	726.7756958007814	228.5834655761719	113.6108856201172	705.2116088867189	175.0156860351563	141.3101806640625	645.3516845703126	215.7184600830079	139.9609527587891	624.7854003906251	158.983627319336	356.8154602050782	392.2862854003907	479.8077392578126	353.7618408203126	340.6145324707032	468.5329895019532	382.3377990722657	350.8496704101563	508.0774841308595	390.1831970214845	299.6317138671876	486.7061767578126	518.8097534179689	329.8249206542969	612.3007812500001	505.7708435058595	310.9488525390626	654.3151855468751	556.1458129882814	303.2220458984376	624.8300170898439	489.4031372070314	118.4996109008789	522.2147216796876	0	0	0	
2	0.004166666666666667	340.4733276367188	1094.32763671875	182.4895935058594	238.5955200195313	1089.154663085938	224.9640808105469	315.7354125976563	1057.419311523438	-33.19657897949219	110.6083374023438	1021.643188476563	65.01219177246095	457.4721679687501	842.991638183594	-96.566520690918	436.1024169921876	863.5996093750002	-149.5293731689453	460.1830139160157	790.080017089844	-162.294189453125	429.3034057617189	804.450622558594	-210.6407012939454	589.9132080078126	398.6757812500001	-222.6767883300782	585.9613647460939	384.2949523925782	-282.4844360351563	608.1013793945314	343.5910949707032	-242.9924316406251	591.2421264648439	327.8533020019532	-298.2256469726563	624.2794189453126	192.6352844238282	-185.2882385253907	605.8385009765626	146.2952423095703	-186.6165161132813	666.1998291015626	167.8664855957032	-191.8966674804688	581.6641235351564	145.3733062744141	-255.3427276611329	679.2860107421876	178.7934265136719	-254.6643676757813	582.9560546875001	161.0289154052735	-313.7644653320313	592.7409057617189	140.15185546875	-343.7247619628907	627.4368286132814	176.4495849609375	-360.9530334472657	695.1356201171876	151.2974548339844	-297.1777343750001	598.5247802734376	104.5000305175782	-391.7287902832032	639.5611572265626	133.2133941650391	-413.6610107421876	711.0656738281251	133.6699371337891	-375.1642761230469	629.0346069335939	116.8730392456055	-469.2537841796876	128.9550323486328	726.5890502929689	211.0427398681641	108.9796447753907	705.4324951171876	157.9886016845703	136.8937530517578	644.7820434570314	197.8211822509766	133.2485656738282	624.6049194335939	141.105697631836	354.2067565917969	401.5749816894532	461.5344543457032	350.0809326171876	348.7339782714844	451.8146362304689	379.6421508789063	360.2123413085938	490.2502441406251	386.1813964843751	308.1919860839844	471.2689208984376	518.7945556640626	341.4454345703126	592.0468750000001	505.6532592773439	325.2341918945313	635.2028198242189	555.2377929687501	314.0765075683594	605.4538574218751	479.6496887207032	127.2605819702149	513.2852783203126	412.4060668945314	158.2195129394532	594.9855957031251	
3	0.008333333333333333	339.6561584472657	1094.720092773438	159.8836364746094	239.3842773437501	1089.636474609375	204.8205566406251	312.5082702636719	1057.235717773438	-53.51944732666017	108.3098068237305	1022.448669433594	47.59172821044923	458.5765380859376	840.988708496094	-116.2389678955078	435.8150329589845	859.8460693359377	-169.2720947265625	461.7765502929689	786.7797851562502	-180.8968658447266	429.3991699218751	799.1262207031252	-228.7744293212891	590.7903442382814	391.7621459960939	-249.3121337890626	585.2979125976564	379.0283203125001	-309.9016418457032	608.2946166992189	336.9723815917969	-272.3815307617188	589.6598510742189	323.0060424804688	-327.5654907226563	624.9229125976564	184.8103332519532	-220.106674194336	605.3489379882814	138.572998046875	-221.9005889892579	665.9589233398439	159.667953491211	-227.8536682128907	579.7864379882814	139.5954284667969	-290.1298522949219	677.9039306640626	171.8550720214844	-290.4247436523438	580.9211425781251	155.8791046142578	-347.2908630371094	588.9757690429689	136.0426025390625	-378.6996459960938	623.7048339843751	172.2678375244141	-396.0692749023439	692.3493041992189	144.960678100586	-334.0950317382813	593.1747436523439	101.2473602294922	-427.4582519531251	634.1989746093751	130.0351257324219	-449.6280822753907	706.3604125976564	128.8064270019532	-412.7613220214845	622.1978759765626	115.0104446411133	-505.282928466797	126.0614395141602	726.1918334960939	193.6357574462891	104.2820434570313	705.5477905273439	141.0448150634766	132.3276824951172	644.1813964843751	179.916748046875	126.7734298706055	624.3605346679689	123.2577209472657	351.6836547851563	410.1671447753907	441.0238037109376	346.0476684570313	357.1068420410157	434.2766418457032	376.6766357421876	369.8261108398438	471.497039794922	381.7583618164063	316.6289062500001	454.8855895996095	517.7853393554689	352.8767395019532	571.1967773437501	504.4827575683595	339.3450317382813	615.2199707031251	553.2156372070314	325.0019836425782	585.8417968750001	471.0260620117189	136.3894958496094	503.6821289062501	403.5689086914064	175.9862976074219	586.6884765625001	
4	0.0125	339.0519104003907	1094.795043945313	137.3498840332032	240.2342681884766	1090.045654296875	184.7817077636719	309.3833923339844	1056.80224609375	-73.98679351806642	105.8527297973633	1022.949523925781	30.29572868347169	459.6763000488282	838.7279052734377	-135.9686431884766	435.5615234375001	855.6517333984377	-189.0050659179688	463.1829223632814	783.1155395507815	-199.5168151855469	429.359832763672	793.3474121093752	-246.7488708496094	591.5610351562501	385.1169433593751	-275.1718444824219	584.4645996093751	373.9038391113282	-336.6082458496094	608.5283813476564	330.8401794433594	-301.0310974121094	587.8011474609376	318.4284362792969	-355.8538513183594	624.9226684570314	177.7269439697266	-253.2466125488282	604.7561645507814	131.5971221923828	-255.5852661132813	665.4626464843751	152.3020324707032	-262.3737182617188	577.8732299804689	134.3880004882813	-323.1901855468751	676.2518920898439	165.5588836669922	-324.8674621582032	578.0879516601564	151.5984497070313	-379.9502563476563	585.2174682617189	132.3726959228516	-412.0493774414064	619.9809570312501	168.5015716552735	-429.4347229003907	689.6405029296876	139.3748931884766	-369.3410949707032	587.5978393554689	98.19813537597659	-461.4973144531251	628.9149169921876	127.0567398071289	-483.8788452148439	701.7470092773439	124.4163208007813	-448.5405273437501	615.6183471679689	113.1093902587891	-539.5400390625001	123.2301559448242	725.5694580078126	176.0894927978516	99.73224639892581	705.7000122070314	123.9477005004883	129.3185729980469	642.0447998046876	162.8601226806641	120.451904296875	624.1296997070314	105.5876693725586	348.5997009277344	418.401824951172	419.6767578125001	341.4670104980469	365.5082092285157	416.0848083496095	373.1751098632813	379.2962951660157	451.9123840332032	376.9097595214844	325.4234313964844	437.8334960937501	515.7173461914064	364.1472778320313	549.6863403320314	502.3127746582032	353.0822753906251	594.5949096679689	550.9719848632814	336.5907897949219	565.4752197265626	463.7326049804689	146.2015380859375	492.6286010742189	398.1245727539064	192.1022338867188	576.1607666015626	
